PathFileType	4	(x/y/z)	S02_PSF_T02
DataRate	CameraRate	NumFrames	NumMarkers	Units	OrigDataRate	OrigDataStartFrame	OrigNumFrames
240	240	4	51	mm	240	103	410
Frame#	Time	Sternum			R.Acromium			L.Acromium			Top.Head			R.ASIS			L.ASIS			R.PSIS			L.PSIS			R.Great.Tro			L.Great.Tro			R.Iliac.Crest			L.Iliac.Crest			V.Sacral			R.Thigh.Upper.Post			R.Thigh.Lower.Ant			R.Thigh.Lower.Post			R.Thigh.Upper.Ant			R.Knee.Lat			R.Knee.Med			R.Shank.Upper.Post			R.Shank.Lower.Ant			R.Shank.Lower.Post			R.Shank.Upper.Ant			R.Ankle.Lat			R.Ankle.Med			R.Heel.Upper			R.Heel.Med			R.Heel.Lat			R.Toe.Lat			R.Toe.Med			R.Toe.Tip			L.Thigh.Upper.Post			L.Thigh.Lower.Ant			L.Thigh.Lower.Post			L.Thigh.Upper.Ant			L.Knee.Lat			L.Knee.Med			L.Shank.Upper.Post			L.Shank.Lower.Ant			L.Shank.Lower.Post			L.Shank.Upper.Ant			L.Ankle.Lat			L.Ankle.Med			L.Heel.Upper			L.Heel.Med			L.Heel.Lat			L.Toe.Lat			L.Toe.Med			L.Toe.Tip			Cervical.Spine			Back			
		X1	Y1	Z1	X2	Y2	Z2	X3	Y3	Z3	X4	Y4	Z4	X5	Y5	Z5	X6	Y6	Z6	X7	Y7	Z7	X8	Y8	Z8	X9	Y9	Z9	X10	Y10	Z10	X11	Y11	Z11	X12	Y12	Z12	X13	Y13	Z13	X14	Y14	Z14	X15	Y15	Z15	X16	Y16	Z16	X17	Y17	Z17	X18	Y18	Z18	X19	Y19	Z19	X20	Y20	Z20	X21	Y21	Z21	X22	Y22	Z22	X23	Y23	Z23	X24	Y24	Z24	X25	Y25	Z25	X26	Y26	Z26	X27	Y27	Z27	X28	Y28	Z28	X29	Y29	Z29	X30	Y30	Z30	X31	Y31	Z31	X32	Y32	Z32	X33	Y33	Z33	X34	Y34	Z34	X35	Y35	Z35	X36	Y36	Z36	X37	Y37	Z37	X38	Y38	Z38	X39	Y39	Z39	X40	Y40	Z40	X41	Y41	Z41	X42	Y42	Z42	X43	Y43	Z43	X44	Y44	Z44	X45	Y45	Z45	X46	Y46	Z46	X47	Y47	Z47	X48	Y48	Z48	X49	Y49	Z49	X50	Y50	Z50	X51	Y51	Z51	

103	0.425	-866.16	1113.5	296.08	-984.06	1351.9	430.48	-963.81	1348.5	136.56	-934.61	1636	278.95	-903.21	947.98	391.99	-900.46	927.98	185.48	-1115.5	979.22	349.25	-1123.1	983.21	276.61	-954.26	824.88	497.57	-1033.2	831.06	106.67	-1003.7	989.26	455.63	-1024.8	979.01	126.04	-1145.4	933.38	309.02	-878.97	638.91	490.28	-796.09	587.38	458.69	-859.43	552.88	470.98	-820.24	672.84	474.81	-818.69	486.54	455.97	-808.1	476.59	314.89	-898.48	283.35	431.74	-822.67	203.12	424.97	-890.61	210.74	423.51	-826.65	271.32	440.28	-872.32	117.99	414.03	-850.19	134.92	334.01	-923.52	103.03	348.64	-904.69	73.435	321.78	-927.07	69.587	381.97	-777.07	57.371	450.58	-727.03	57.573	352.33	-690.64	82.077	415.99	-1090.4	620.93	143.71	-1024	532.15	146.93	-1101.6	533.3	167.11	-1020.4	624.99	124.38	-1051.2	454.08	161.71	-1051	455.25	301.89	-1152.9	299.39	165.71	-1099.6	203	186.26	-1164.1	228.89	180.48	-1094.8	276.59	168.33	-1159.4	107.56	203.18	-1151	103.81	283.39	-1223.2	76.596	235.03	-1217	50.361	267.88	-1217.4	49.29	206.11	-1051.7	35.005	182.15	-1033.7	43.921	292.3	-970.66	56.117	247.05	-1049.3	1408.5	279.28	-1127.7	1160	283.9
104	0.42917	-861.02	1112.7	296.21	-978.98	1351.2	430.65	-958.14	1347.9	136.81	-929.11	1635.3	279.46	-897.72	947.32	391.95	-895.52	927.13	185.44	-1110.3	978.53	349.88	-1117.9	982.35	277.26	-948.12	824.47	497.86	-1028.8	830.86	106.78	-998.18	988.69	455.87	-1019.9	978.19	126.37	-1139.9	932.51	309.74	-873.03	638.23	489.82	-790.46	586.66	457.56	-853.7	552.16	470.49	-814.46	672.13	473.82	-812.77	486.07	455.11	-803.12	475.92	313.83	-886.84	280.73	431.39	-808.59	202.87	424.96	-876.67	208.42	423.35	-814.73	270.99	440.08	-855.38	116.07	414.14	-833.58	133.42	334.21	-906.02	99.316	348.73	-886.21	70.211	321.98	-908.62	65.947	382.14	-758.44	58.529	451.24	-708.39	59.795	353.06	-672.78	85.666	416.65	-1087.4	621.24	143.79	-1021.6	532	146.95	-1099.3	533.68	167.14	-1017.4	624.82	124.45	-1049.5	454.03	161.66	-1049.3	455.12	301.82	-1151.8	299.78	165.67	-1099	203.16	186.24	-1163.6	229.26	180.65	-1093.9	276.72	168.28	-1159.1	107.82	203.15	-1150.7	104.1	283.4	-1223	76.949	235.02	-1216.9	50.744	267.9	-1217.3	49.628	206.13	-1051.7	34.978	182.14	-1033.7	43.904	292.28	-970.62	55.98	247.05	-1044	1407.8	279.36	-1122.3	1159.3	283.84
105	0.43333	-855.87	1111.9	296.36	-973.88	1350.4	430.84	-952.46	1347.2	137.08	-923.6	1634.5	279.98	-892.21	946.6	391.92	-890.55	926.24	185.4	-1105.2	977.8	350.52	-1112.7	981.46	277.91	-942	823.95	498.11	-1024.5	830.65	106.91	-992.62	988.06	456.11	-1015	977.34	126.72	-1134.5	931.6	310.46	-867.12	637.47	489.36	-784.91	585.81	456.42	-848.04	551.33	470.02	-808.73	671.31	472.78	-806.94	485.48	454.3	-798.24	475.1	312.78	-875.26	278.21	431.04	-794.67	202.77	424.93	-862.82	206.27	423.19	-802.94	270.75	439.88	-838.54	114.38	414.24	-817.09	132.16	334.4	-888.59	95.869	348.81	-867.82	67.279	322.17	-890.24	62.595	382.31	-739.99	59.922	451.82	-690.01	62.283	353.73	-655.18	89.493	417.21	-1084.4	621.52	143.86	-1019.2	531.84	146.99	-1096.8	534.05	167.18	-1014.4	624.62	124.51	-1047.7	453.97	161.62	-1047.5	455	301.75	-1150.8	300.17	165.63	-1098.4	203.32	186.23	-1163.1	229.62	180.86	-1092.9	276.85	168.23	-1158.7	108.1	203.12	-1150.4	104.39	283.4	-1222.9	77.313	235.02	-1216.8	51.143	267.92	-1217.2	49.977	206.14	-1051.6	34.952	182.14	-1033.6	43.892	292.26	-970.59	55.845	247.05	-1038.5	1407.1	279.46	-1116.8	1158.5	283.81
106	0.4375	-850.71	1111	296.53	-968.75	1349.5	431.03	-946.77	1346.5	137.37	-918.09	1633.6	280.52	-886.67	945.82	391.91	-885.56	925.3	185.37	-1100	977.03	351.16	-1107.4	980.56	278.57	-935.9	823.31	498.33	-1020.1	830.42	107.06	-987.01	987.35	456.37	-1010.2	976.46	127.07	-1129.1	930.67	311.18	-861.25	636.6	488.93	-779.44	584.84	455.26	-842.45	550.39	469.59	-803.04	670.37	471.7	-801.19	484.79	453.53	-793.45	474.15	311.72	-863.75	275.8	430.67	-780.91	202.82	424.89	-849.07	204.28	423.01	-791.29	270.59	439.7	-821.82	112.92	414.31	-800.75	131.14	334.58	-871.27	92.69	348.89	-849.55	64.638	322.34	-871.94	59.531	382.46	-721.76	61.541	452.3	-671.93	65.022	354.34	-637.87	93.541	417.68	-1081.3	621.78	143.91	-1016.7	531.67	147.03	-1094.3	534.4	167.21	-1011.2	624.4	124.57	-1045.8	453.9	161.57	-1045.7	454.89	301.68	-1149.7	300.57	165.59	-1097.8	203.47	186.21	-1162.7	229.99	181.11	-1091.9	276.97	168.18	-1158.4	108.38	203.09	-1150.1	104.69	283.41	-1222.7	77.688	235.01	-1216.7	51.557	267.94	-1217.1	50.338	206.16	-1051.6	34.926	182.13	-1033.6	43.883	292.24	-970.55	55.712	247.04	-1033.1	1406.3	279.58	-1111.3	1157.8	283.8
